# xmcd CD database file
#
# Track frame offsets:
#	150
#	39207
#	60950
#	80787
#	106727
#	117047
#	149430
#	193757
#	222295
#
# Disc length: 3431 seconds
#
# Revision: 4
# Processed by: cddbd v1.5.1PL2 Copyright (c) Steve Scherf et al.
# Submitted via: CDex 1.60beta1
#
DISCID=760d6509
DTITLE=ベートーヴェン - ベートーヴェン　ピアノソナタ　悲愴・月光・情熱　ジョン・オコーナー（ピアノ）
DYEAR=1985
DGENRE=Classical
TTITLE0=ピアノ・ソナタ第８番　ハ短調　作品１３「悲愴」 - Grave - Allegro di molto e con brio
TTITLE1=ピアノ・ソナタ第８番　ハ短調　作品１３「悲愴」 - Adagio cantabile
TTITLE2=ピアノ・ソナタ第８番　ハ短調　作品１３「悲愴」 - Rondo - Allegro
TTITLE3=ピアノ・ソナタ第４番　嬰ハ短調　作品２７の２「月光」 - Adagio sostenuto
TTITLE4=ピアノ・ソナタ第４番　嬰ハ短調　作品２７の２「月光」 - Allegretto
TTITLE5=ピアノ・ソナタ第４番　嬰ハ短調　作品２７の２「月光」 - Presto
TTITLE6=ピアノ・ソナタ第２３番　ヘ短調　作品５７「情熱」 - Allegro assai
TTITLE7=ピアノ・ソナタ第２３番　ヘ短調　作品５７「情熱」 - Andante con moto
TTITLE8=ピアノ・ソナタ第２３番　ヘ短調　作品５７「情熱」 - Allegro ma non troppo
EXTD=Telarc\nCD-80118 YEAR: 1985
EXTT0=
EXTT1=
EXTT2=
EXTT3=
EXTT4=
EXTT5=
EXTT6=
EXTT7=
EXTT8=
PLAYORDER=
